# xmcd
#
# Track frame offsets:
#	150
#	13013
#	26508
#	41798
#	55311
#	69019
#	84913
#	98116
#	114897
#	135150
#	154983
#
# Disc length: 2201 seconds
#
# Revision: 0
# Processed by: cddbd v1.5.1PL0 Copyright (c) Steve Scherf et al.
# Submitted via: dBpowerAMP V4.0
#
DISCID=7b08970b
DTITLE=Steven  - The best time of my life
DYEAR=2004
DGENRE=Country
TTITLE0=The best time of my life
TTITLE1=Roll with the punches
TTITLE2=I wonder
TTITLE3=Can't smell the flowers
TTITLE4=You got a friend
TTITLE5=Time flies
TTITLE6=First time tonight
TTITLE7=Nuke myself
TTITLE8=Somebody like you
TTITLE9=Twin Towers
TTITLE10=Would it even matter
EXTD=
EXTT0=
EXTT1=
EXTT2=
EXTT3=
EXTT4=
EXTT5=
EXTT6=
EXTT7=
EXTT8=
EXTT9=
EXTT10=
PLAYORDER=
